<?xml version="1.0" encoding="utf-8"?>
<!-- Generator: Adobe Illustrator 28.0.0, SVG Export Plug-In . SVG Version: 6.00 Build 0)  -->
<svg version="1.1" id="Layer_1" xmlns="http://www.w3.org/2000/svg" xmlns:xlink="http://www.w3.org/1999/xlink" x="0px" y="0px"
	 viewBox="0 0 396.85 113.39" style="enable-background:new 0 0 396.85 113.39;" xml:space="preserve">
<style type="text/css">
	.st0{fill:#ED2225;}
	.st1{fill:#FFFFFF;}
</style>
<g>
	<g>
		<path class="st0" d="M27.65,25.51l17.62-0.31v6.12l-5.32,2.45l1.65-2.51v37.37H27.1L13.7,38.36h1.71v24.47l-1.77-2.45l5.44,2.14
			v6.12H1.47v-6.12l5.44-2.14l-1.77,2.45v-31.5l1.1,2.2l-4.77-1.9v-6.12L20,25.21l13.09,29.48h-1.77V31.32l1.77,2.45l-5.44-2.14
			V25.51z"/>
		<path class="st1" d="M77.62,62.7l-1.59-2.39l4.95,2.2v6.12l-12.91,0.61l-1.53-5.75l0.73,0.18c-1.39,1.92-2.97,3.37-4.74,4.37
			s-3.74,1.5-5.9,1.5c-2.98,0-5.34-0.94-7.1-2.81c-1.75-1.88-2.63-4.38-2.63-7.52c0-2.24,0.49-4.08,1.47-5.51
			c0.98-1.43,2.48-2.49,4.5-3.18c2.02-0.69,4.6-1.04,7.74-1.04H66l-0.61,0.61v-2.2c0-1.55-0.33-2.66-0.98-3.33
			c-0.65-0.67-1.71-1.01-3.18-1.01c-0.61,0-1.31,0.04-2.08,0.12c-0.77,0.08-1.59,0.22-2.45,0.43l0.92-1.1l-0.98,4.34H49.3
			l-0.49-10.21c3.18-0.82,6.09-1.43,8.72-1.83c2.63-0.41,5.01-0.61,7.13-0.61c4.36,0,7.61,0.9,9.76,2.69
			c2.14,1.79,3.21,4.55,3.21,8.26V62.7z M59.15,57.75c0,1.14,0.25,1.98,0.76,2.51c0.51,0.53,1.15,0.79,1.93,0.79
			c0.65,0,1.32-0.17,2.02-0.52c0.69-0.35,1.32-0.85,1.9-1.5l-0.37,1.35v-6.06l0.67,0.67h-3.43c-1.26,0-2.16,0.2-2.69,0.61
			C59.41,56.01,59.15,56.73,59.15,57.75z"/>
		<path class="st1" d="M82.45,68.63v-6.12l4.4-1.71l-1.04,1.71V41.9l1.22,1.9l-4.59-1.83v-6.12l12.91-0.61l1.47,5.63l-1.53-0.31
			c1.92-1.92,3.77-3.37,5.57-4.37c1.79-1,3.69-1.5,5.69-1.5c1.3,0,2.71,0.2,4.22,0.61L110.16,49h-6.97l-1.04-6.85l1.04,2.26
			c-0.16-0.08-0.35-0.14-0.55-0.18c-0.2-0.04-0.41-0.06-0.61-0.06c-0.9,0-1.81,0.3-2.75,0.89c-0.94,0.59-1.65,1.29-2.14,2.11
			l0.92-3.12v18.47l-1.28-1.71l5.57,1.71v6.12H82.45z"/>
		<path class="st1" d="M125.02,69.55c-2.73,0-5.06-0.93-6.97-2.78c-1.92-1.86-2.88-4.64-2.88-8.35V42.15l0.98,1.59l-4.34-1.77v-6.12
			l15.6-0.49v21.1c0,1.31,0.29,2.28,0.86,2.94c0.57,0.65,1.32,0.98,2.26,0.98c0.69,0,1.47-0.18,2.32-0.55
			c0.86-0.37,1.73-0.92,2.63-1.65l-0.73,1.96V41.9l0.98,1.83l-4.34-1.77v-6.12l15.6-0.55v27.22l-1.35-2.02l4.71,2.02v6.12
			l-12.91,0.61l-1.59-5.93l1.65,0.49c-2,1.92-4.08,3.35-6.24,4.31C129.1,69.07,127.02,69.55,125.02,69.55z"/>
		<path class="st1" d="M151.81,82.7v-6.12l4.83-2.14l-1.47,1.9V42.33l1.28,1.47l-4.65-1.83v-6.12l12.91-0.61l1.28,5.38l-1.28-0.73
			c1.92-1.67,3.76-2.96,5.54-3.85c1.77-0.9,3.68-1.35,5.72-1.35c2.41,0,4.51,0.62,6.3,1.87c1.79,1.24,3.2,3.08,4.22,5.5
			c1.02,2.43,1.53,5.41,1.53,8.96c0,4.16-0.7,7.61-2.11,10.34c-1.41,2.73-3.36,4.78-5.87,6.15c-2.51,1.37-5.41,2.05-8.72,2.05
			c-0.86,0-1.72-0.05-2.6-0.15c-0.88-0.1-1.78-0.24-2.72-0.4l1.41-1.28v8.62l-1.1-1.65l5.08,1.9v6.12H151.81z M169.61,60.99
			c2.2,0,3.7-0.79,4.5-2.38c0.79-1.59,1.19-3.69,1.19-6.3c0-1.75-0.15-3.28-0.46-4.59c-0.31-1.3-0.76-2.32-1.38-3.06
			c-0.61-0.73-1.43-1.1-2.45-1.1c-0.73,0-1.51,0.2-2.32,0.61c-0.82,0.41-1.71,1.02-2.69,1.83l1.41-3v19.7L166,60.5
			C167.38,60.83,168.59,60.99,169.61,60.99z"/>
		<path class="st0" d="M210.59,25.21c3.3,0,6.22,0.45,8.75,1.35c2.53,0.9,4.64,2.23,6.33,4.01s2.98,3.96,3.85,6.54
			c0.88,2.59,1.31,5.58,1.31,8.96c0,4.89-0.86,9.01-2.57,12.36s-4.19,5.88-7.43,7.61c-3.24,1.73-7.17,2.6-11.77,2.6H190.4v-6.12
			l5.26-2.08l-1.59,2.38v-31.5l1.71,2.45l-5.38-2.14v-6.12l16.21-0.31H210.59z M209.67,59.76c0.81,0,1.66-0.08,2.54-0.25
			c0.88-0.16,1.71-0.62,2.51-1.38c0.8-0.75,1.44-2.03,1.93-3.82c0.49-1.79,0.73-4.32,0.73-7.58c0-3.18-0.24-5.64-0.7-7.37
			c-0.47-1.73-1.07-2.97-1.8-3.7c-0.73-0.73-1.51-1.18-2.32-1.35c-0.82-0.16-1.57-0.24-2.26-0.24h-5.5l1.83-1.83V61.6l-1.83-1.83
			H209.67z"/>
		<path class="st1" d="M248.81,69.55c-3.18,0-5.96-0.63-8.35-1.9c-2.38-1.26-4.23-3.14-5.54-5.63c-1.31-2.49-1.96-5.57-1.96-9.24
			c0-3.79,0.7-7.03,2.11-9.73c1.41-2.69,3.39-4.76,5.96-6.21c2.57-1.45,5.63-2.17,9.17-2.17c3.47,0,6.27,0.65,8.41,1.96
			c2.14,1.31,3.7,3.08,4.68,5.32c0.98,2.24,1.47,4.77,1.47,7.58c0,0.9-0.04,1.8-0.12,2.72s-0.22,1.85-0.43,2.78h-21.16v-6.3h11.01
			l-1.9,1.35c0.04-1.55-0.02-2.83-0.18-3.85c-0.16-1.02-0.46-1.77-0.89-2.26c-0.43-0.49-1.07-0.73-1.93-0.73
			c-1.1,0-1.91,0.38-2.42,1.13c-0.51,0.75-0.85,1.71-1.01,2.87c-0.16,1.16-0.25,2.38-0.25,3.64c0,1.71,0.14,3.31,0.43,4.8
			c0.29,1.49,0.88,2.69,1.77,3.61c0.9,0.92,2.24,1.38,4.04,1.38c1.18,0,2.5-0.21,3.95-0.64c1.45-0.43,2.97-1.05,4.56-1.87l3.98,6.3
			c-2.49,1.71-5.04,2.99-7.65,3.82C253.97,69.13,251.38,69.55,248.81,69.55z"/>
		<path class="st1" d="M279.7,44.35c0,0.65,0.41,1.18,1.22,1.59c0.81,0.41,1.87,0.77,3.15,1.1c1.28,0.33,2.65,0.71,4.1,1.16
			c1.45,0.45,2.81,1.04,4.1,1.77c1.28,0.73,2.33,1.69,3.15,2.88c0.82,1.18,1.22,2.71,1.22,4.59c0,2.85-0.75,5.17-2.26,6.94
			c-1.51,1.77-3.53,3.08-6.06,3.92c-2.53,0.83-5.36,1.25-8.5,1.25c-1.92,0-3.91-0.16-5.99-0.49c-2.08-0.33-4.2-0.75-6.36-1.28
			l0.37-10.09h7.58l0.79,4.83l-0.92-1.65c0.69,0.29,1.49,0.49,2.39,0.61c0.9,0.12,1.67,0.18,2.32,0.18c0.73,0,1.44-0.06,2.11-0.18
			c0.67-0.12,1.21-0.32,1.62-0.58c0.41-0.26,0.61-0.62,0.61-1.07c0-0.69-0.4-1.23-1.19-1.62c-0.8-0.39-1.83-0.74-3.12-1.07
			c-1.28-0.33-2.63-0.7-4.04-1.13c-1.41-0.43-2.75-1.03-4.04-1.8c-1.28-0.77-2.32-1.82-3.12-3.15c-0.8-1.32-1.19-3.03-1.19-5.11
			c0-2.69,0.64-4.86,1.93-6.51c1.29-1.65,3.06-2.85,5.32-3.61c2.26-0.75,4.82-1.13,7.68-1.13c2.04,0,4.11,0.15,6.21,0.46
			c2.1,0.31,4.25,0.74,6.45,1.31l-0.43,9.42h-7.65l-1.1-4.71l1.59,1.77c-1.71-0.37-3.18-0.55-4.4-0.55c-1.06,0-1.92,0.15-2.57,0.46
			C280.03,43.16,279.7,43.66,279.7,44.35z"/>
		<path class="st1" d="M314.5,61.78l-0.73-0.92l4.1,1.65v6.12h-18.96v-6.12l4.1-1.65l-0.73,0.92v-18.9l0.61,0.61l-3.98-1.53v-6.12
			l15.6-0.49V61.78z M308.26,32.42c-2,0-3.62-0.57-4.86-1.71c-1.24-1.14-1.87-2.77-1.87-4.89c0-2.24,0.64-3.91,1.93-5.02
			c1.29-1.1,2.91-1.65,4.86-1.65c1.92,0,3.51,0.54,4.77,1.62c1.26,1.08,1.9,2.74,1.9,4.98c0,2.2-0.64,3.86-1.93,4.98
			C311.78,31.86,310.18,32.42,308.26,32.42z"/>
		<path class="st1" d="M334.01,83.62c-5.42,0-9.44-0.66-12.05-1.99c-2.61-1.33-3.92-3.35-3.92-6.09c0-2.16,0.79-3.9,2.36-5.23
			c1.57-1.33,3.88-2.33,6.94-3.03l-0.18,2.51c-1.88-0.2-3.43-0.75-4.65-1.65c-1.22-0.9-1.83-2.04-1.83-3.42
			c0-0.45,0.08-0.93,0.24-1.44s0.45-1.1,0.86-1.77c0.41-0.67,0.95-1.45,1.62-2.32s1.52-1.91,2.54-3.09l0.06,1.96
			c-2.28-0.98-4.02-2.38-5.2-4.19c-1.18-1.81-1.77-3.97-1.77-6.45c0-4.04,1.42-7.17,4.25-9.39c2.83-2.22,6.78-3.33,11.83-3.33
			c3.87,0,7.12,0.65,9.72,1.96l-2.63-0.49l10.83-0.24v6.12l-3.98,0.92l0.73-1.04c0.33,0.65,0.6,1.36,0.83,2.11
			c0.22,0.75,0.34,1.66,0.34,2.72c0,3.96-1.46,7.08-4.37,9.36c-2.92,2.28-6.88,3.43-11.9,3.43c-1.92,0-3.85-0.18-5.81-0.55l1.29-1.1
			l-0.31,5.14l-1.22-0.73h12.54c4.24,0,7.46,0.84,9.66,2.51c2.2,1.67,3.3,4.14,3.3,7.4c0,3.71-1.67,6.54-5.01,8.5
			C345.78,82.64,340.74,83.62,334.01,83.62z M334.99,75.48c2.77,0,4.72-0.18,5.84-0.55c1.12-0.37,1.68-0.92,1.68-1.65
			c0-0.82-0.31-1.38-0.92-1.68s-1.39-0.46-2.32-0.46h-11.56l2.57-0.61c-1.1,0.77-1.65,1.75-1.65,2.94c0,0.65,0.49,1.15,1.47,1.5
			S332.71,75.48,334.99,75.48z M334.81,51.51c1.35,0,2.35-0.37,3.03-1.1s1.01-1.88,1.01-3.43c0-1.55-0.31-2.65-0.92-3.3
			c-0.61-0.65-1.59-0.98-2.94-0.98c-1.31,0-2.27,0.34-2.91,1.01c-0.63,0.67-0.95,1.76-0.95,3.27c0,1.51,0.29,2.64,0.89,3.4
			C332.62,51.13,333.54,51.51,334.81,51.51z"/>
		<path class="st1" d="M355.6,68.63v-6.12l4.71-1.83l-1.35,1.65V41.97l1.35,1.83l-4.71-1.83v-6.12l12.91-0.61l1.47,5.69l-1.53-0.49
			c1.96-1.92,4.03-3.35,6.21-4.31c2.18-0.96,4.27-1.44,6.27-1.44c2.77,0,5.11,0.9,7,2.69c1.9,1.79,2.84,4.51,2.84,8.13v16.82
			l-0.98-1.59l4.34,1.77v6.12h-18.35v-6.12l4.04-1.65l-1.29,1.71v-14.5c0-1.47-0.3-2.54-0.89-3.21c-0.59-0.67-1.36-1.01-2.29-1.01
			c-0.73,0-1.52,0.19-2.35,0.58c-0.84,0.39-1.68,0.93-2.54,1.62l0.73-1.59v18.1l-0.98-1.65l3.73,1.59v6.12H355.6z"/>
	</g>
</g>
</svg>
